<?xml version="1.0" encoding="UTF-8"?>
<svg id="Layer_2" data-name="Layer 2" xmlns="http://www.w3.org/2000/svg" viewBox="0 0 291.59 105.35">
  <defs>
    <style>
      .cls-1 {
        fill: #b94aff;
      }
    </style>
  </defs>
  <g id="Layer_1-2" data-name="Layer 1">
    <path class="cls-1" d="M268.39,80.31c-11.41,0-21.38-8.45-22.96-20.07-1.72-12.67,7.19-24.37,19.86-26.09,12.67-1.72,24.37,7.19,26.09,19.86h0c.83,6.14-.78,12.23-4.53,17.16-3.75,4.93-9.19,8.1-15.33,8.93-1.05,.14-2.1,.21-3.13,.21Zm.02-35.67c-.56,0-1.12,.04-1.69,.11-6.82,.93-11.62,7.23-10.7,14.05,.93,6.82,7.23,11.62,14.05,10.69,3.3-.45,6.24-2.16,8.26-4.81,2.02-2.65,2.88-5.94,2.44-9.24-.85-6.26-6.22-10.81-12.37-10.81Z"/>
    <path class="cls-1" d="M82.32,86.21c-2.14,0-4.13-1.29-4.96-3.36C62.62,45.98,40.47,9.39,24.39,10.73c-2.26,.19-9.84,1.17-12.42,5.89-2.01,3.69-1.81,9.66,1.99,13.28,3.01,2.86,7.62,3.73,11.74,2.21,2.77-1.02,5.84,.4,6.87,3.17,1.02,2.77-.4,5.85-3.17,6.87-7.92,2.92-16.87,1.15-22.81-4.49C-1.3,30.15-1.4,18.82,2.59,11.5,6.1,5.05,13.73,.89,23.5,.07c19.27-1.62,37.45,24.4,50.14,48.83-.04-16.08,3.27-26.02,10.07-30.3,.23-.14,.5-.31,.82-.49,1.35-.79,3.61-2.12,4.05-3.83,.18-.7,.09-1.57-.27-2.59-.99-2.78,.47-5.84,3.25-6.83,2.78-.99,5.84,.47,6.83,3.25,1.09,3.07,1.27,6.05,.54,8.86-1.56,6.01-6.77,9.06-8.99,10.37-.2,.12-.38,.22-.53,.32-5.23,3.29-7.43,24.17-1.84,52.16,.54,2.71-1.07,5.39-3.72,6.17-.51,.15-1.02,.22-1.52,.22Z"/>
    <path class="cls-1" d="M99.47,74.9c-1.76,0-3.49-.87-4.51-2.46-2.89-4.51-4.74-9.69-5.34-15-.84-7.37,.84-13.45,2.4-17.26,1.12-2.73,4.24-4.05,6.97-2.93,2.73,1.12,4.05,4.24,2.93,6.97-1.08,2.65-2.25,6.89-1.67,12.01,.53,4.66,2.31,8.24,3.72,10.43,1.59,2.49,.87,5.79-1.62,7.39-.89,.57-1.89,.85-2.88,.85Z"/>
    <path class="cls-1" d="M94.41,105.35c-6.27,0-14.79-1.21-22.62-7.23-7.42-5.71-10.9-13.15-12.51-18.39-.87-2.82,.72-5.81,3.54-6.68,2.82-.87,5.81,.72,6.68,3.54,1.15,3.75,3.62,9.07,8.81,13.06,7.86,6.04,17.19,5.12,21.67,4.68,4.48-.44,13.82-1.36,20.44-8.58,4.06-4.42,5.81-9.83,6.47-14.79-3.75,1.75-8.15,1.95-11.67,.3-4.84-2.26-6.35-6.97-8.43-13.49-1.17-3.65-2.05-7.41-2.62-11.19-.44-2.92,1.56-5.65,4.48-6.09,2.93-.44,5.65,1.56,6.09,4.48,.49,3.22,1.24,6.42,2.24,9.54,.87,2.74,2.07,6.48,2.78,7.06,.79,.37,2.6,0,3.66-1.01,.74-.71,.98-1.81,1.4-4.34,.49-2.98,.12-5.57-.04-6.68-.82-5.73,4.1-6.66,4.31-6.69,1.46-.25,2.97,.11,4.16,1,2.65,2,3.78,9.34,4.21,13.54,.59,5.68,2.4,22.98-9.17,35.59-9.38,10.23-21.92,11.46-27.27,11.99-1.63,.16-3.92,.39-6.62,.39Z"/>
    <path class="cls-1" d="M152.77,92.56h-.07c-4.69-.02-8.86-1.94-11.42-5.28-4.43-5.77-3.46-14.77,2.18-20.05,2.98-2.79,6.91-4.13,10.84-4.12-.31-.93-.75-1.84-1.42-2.88-.46-.71-1.68-2.6-2.29-2.82-.23-.04-1.22,.56-1.99,1.52-1.84,2.31-5.2,2.7-7.51,.86-2.31-1.84-2.7-5.2-.86-7.51,1.14-1.43,5.31-6.06,11.34-5.52,5.67,.51,8.67,5.16,10.29,7.65,2.63,4.06,3.25,7.41,3.8,10.36,.29,1.58,.57,3.07,1.17,4.75,.02,.06,.04,.12,.06,.18,.25,.68,.53,1.36,.86,2.02,.07,.12,.14,.23,.2,.36,.42,.82,.89,1.62,1.4,2.38,.44,.65,.92,1.28,1.43,1.91,.7,.84,1.36,1.54,1.73,1.91,.11,.11,.23,.23,.34,.34,1.46,1.43,1.98,3.56,1.34,5.5-.64,1.94-2.32,3.34-4.34,3.62-1.76,.24-3.01-.28-4.1-1.17-2.89,3.69-7.86,5.97-12.97,5.97Zm1.39-18.76c-1.33,0-2.56,.46-3.38,1.23-1.7,1.59-1.98,4.49-1.02,5.74,.52,.68,1.64,1.09,2.98,1.1h.02c1.82,0,3.7-.77,4.56-1.88,.87-1.12,.84-2.78,.73-3.72-.24-.5-.47-1.01-.68-1.52-1.04-.66-2.16-.95-3.22-.95Z"/>
    <path class="cls-1" d="M183.14,97c-1.39,0-2.73-.54-3.74-1.52-1.04-1.01-1.43-2.11-1.56-3.17h0c-.43-2.85-.4-5.69,.07-8.34-.29-16.06-4.64-26.7-8.48-33.02-2.39-3.93-6.84-11.23-13.5-11.89-3.71-.37-7.11,1.4-9.31,2.94-2.42,1.7-5.75,1.11-7.45-1.31-1.69-2.42-1.11-5.75,1.31-7.45,5.28-3.7,10.98-5.36,16.49-4.82,11.97,1.18,18.71,12.24,21.59,16.97,3.27,5.37,6.85,13.33,8.74,24.22,1.97-1.29,4.34-2.32,7.15-2.74,4.96-.74,9.87,.6,14.59,3.98,3.14,2.25,5.66,5.33,7.3,8.92,1.23,2.69,.04,5.86-2.64,7.09-2.68,1.23-5.86,.04-7.09-2.64-.6-1.32-1.75-3.19-3.79-4.66-.98-.7-3.61-2.57-6.79-2.1-4.29,.64-6.52,5.16-6.76,5.67-.27,.57-.48,1.19-.65,1.85,.01,1.86-.02,3.79-.12,5.78-.01,.23-.02,.43-.03,.58,.07,1.39-.31,2.62-1.15,3.67-.93,1.17-2.31,1.89-3.79,2-.13,0-.26,.01-.39,.01Z"/>
    <path class="cls-1" d="M205.88,64.04c-1.34,0-2.66-.11-3.96-.35-7.99-1.42-15.36-7.19-19.7-15.42-3.72-7.05-4.37-14.37-1.78-20.1,2.29-5.08,7.37-9.54,12.93-11.36,4.09-1.34,8.11-1.07,11.31,.75,6.63,3.76,9.15,14.01,5.3,21.5-2.19,4.25-6.42,7.41-11.62,8.67-1.03,.25-2.07,.42-3.12,.51,2.5,2.61,5.52,4.39,8.56,4.93,4.8,.85,9.27-1.47,11.5-2.93,2.47-1.62,5.79-.93,7.4,1.54,1.62,2.47,.93,5.79-1.54,7.4-4.87,3.19-10.17,4.86-15.28,4.86Zm-16.22-26.98c2.08,.65,4.22,.75,6.19,.27,2.14-.52,3.87-1.7,4.62-3.16,1.35-2.62,.3-6.52-1.07-7.3-.54-.3-1.55-.26-2.71,.12-2.66,.87-5.46,3.27-6.5,5.59-.55,1.22-.72,2.77-.53,4.48Z"/>
    <path class="cls-1" d="M227.01,85.05c-1.08,0-2.17-.33-3.11-1-2.4-1.72-2.95-5.06-1.23-7.46,3.4-4.74,5.44-9.95,5.88-15.06,.27-3.13-.07-6.02-1-8.56-.02-.04-.04-.09-.05-.13-.61-1.56-1.8-3.84-4.01-5.91-.05-.04-.09-.09-.14-.13-1.68-1.47-3.75-2.64-6.18-3.51-2.75-.97-4.21-3.97-3.29-6.74,.92-2.77,3.89-4.28,6.67-3.41,3.25,1.02,6.32,2.68,8.96,4.85,6.48-13.43,23.23-16.79,25.24-17.15,2.91-.52,5.68,1.42,6.2,4.33,.52,2.91-1.42,5.68-4.33,6.2-.6,.11-14.69,2.72-18.12,12.84-.58,1.73-.83,3.59-.73,5.55,3.44,10.01,1.2,22.46-6.4,33.04-1.04,1.46-2.68,2.23-4.35,2.23Z"/>
  </g>
</svg>