<?xml version="1.0" encoding="UTF-8"?>
<svg id="Layer_2" data-name="Layer 2" xmlns="http://www.w3.org/2000/svg" viewBox="0 0 1779.76 1304.05">
  <defs>
    <style>
      .cls-1 {
        fill: #ffda70;
      }

      .cls-2 {
        fill: #ab75ff;
      }

      .cls-3 {
        fill: #7d00c9;
      }

      .cls-3, .cls-4 {
        stroke-width: 27px;
      }

      .cls-3, .cls-4, .cls-5, .cls-6, .cls-7, .cls-8, .cls-9, .cls-10, .cls-11, .cls-12 {
        stroke: #000;
      }

      .cls-3, .cls-5, .cls-6, .cls-7, .cls-10 {
        stroke-miterlimit: 10;
      }

      .cls-4, .cls-8, .cls-9, .cls-11, .cls-12 {
        stroke-linecap: round;
        stroke-linejoin: round;
      }

      .cls-4, .cls-12 {
        fill: none;
      }

      .cls-5 {
        fill: #fff4bf;
      }

      .cls-5, .cls-6, .cls-7 {
        stroke-width: 28.11px;
      }

      .cls-6, .cls-9 {
        fill: #ee75f3;
      }

      .cls-7, .cls-8, .cls-10, .cls-11 {
        fill: #fff;
      }

      .cls-8, .cls-9 {
        stroke-width: 28.11px;
      }

      .cls-10, .cls-12 {
        stroke-width: 23.27px;
      }

      .cls-11 {
        stroke-width: 25.79px;
      }
    </style>
  </defs>
  <g id="Layer_1-2" data-name="Layer 1">
    <g>
      <path class="cls-5" d="M1120.71,1160.58c104.24-25.16,226.42,9.95,228.89,46.67,2.07,30.81-80.07,64.37-144,72.89-90.69,12.09-193.12-19.74-195.05-53.65-1.64-28.65,68.62-55.87,110.17-65.9Z"/>
      <path class="cls-5" d="M559.21,1167.82c-104.24-25.16-226.42,9.95-228.89,46.67-2.07,30.81,80.07,64.37,144,72.89,90.69,12.09,193.12-19.74,195.05-53.65,1.64-28.65-68.62-55.87-110.17-65.9Z"/>
      <path class="cls-7" d="M483.91,1103.27c-29.7,3.63-91.31,18.37-91.88,39.18-1.14,41.57,241.31,102.41,262.13,61.27,9.8-19.38-29.93-60.67-60.8-80.14-44.74-28.22-90.02-22.68-109.45-20.31Z"/>
      <path class="cls-7" d="M1189.84,1095.35c29.73,3.39,91.46,17.63,92.2,38.44,1.48,41.56-240.48,104.36-261.62,63.39-9.96-19.3,29.44-60.91,60.15-80.63,44.51-28.59,89.84-23.41,109.28-21.2Z"/>
      <g>
        <polygon class="cls-6" points="177.32 791.68 118.65 918.79 155.99 1010.35 237.32 911.68 177.32 791.68"/>
        <path class="cls-8" d="M119.95,916.04c-6.04-13.09-24.41-13.74-31.34-1.09-16.64,30.36-33.38,61.88-50.18,94.62-4.31,8.4-15.74,31.11-21,62.67-3.73,22.34-6.99,43.8,5.33,62.67,8.02,12.28,24.98,27.04,42.33,24,14.52-2.55,23.05-16.47,31.33-30,3.02-4.94,5.43-9.78,7.34-14.34,3.42-8.16,12.32-12.56,20.85-10.22,2.87,.79,5.75,.9,8.47,.22,9.28-2.29,13.01-12.75,15-18.33,5.09-14.26,1.93-28.55-2.11-38.83-3.14-7.98-.17-17.06,7.15-21.53,.09-.06,.18-.11,.27-.17,7.61-4.64,10.54-14.25,6.8-22.34-13.42-29.11-26.85-58.21-40.27-87.32Z"/>
      </g>
      <polygon class="cls-6" points="1387.4 702.38 1518.02 652 1606.98 695.14 1503.3 769.97 1387.4 702.38"/>
      <path class="cls-6" d="M292,520.91c181.97-252.8,499.64-256.29,548-256,54.07,.33,304.53,1.84,485.33,198.67,29,31.57,219.63,246.06,150.67,444-88.42,253.79-521.96,266.57-618.67,269.33-58.64,1.68-565.39,16.17-665.33-258.67-62.43-171.68,70.32-356.1,100-397.33Z"/>
      <g>
        <g>
          <path class="cls-1" d="M537.01,637.51c-2.58,0-5.15-.38-7.64-1.12-.2-.06-.41-.13-.62-.19-13.97-4.57-21.58-19.1-17.42-33.11,15.29-51.44,33.48-102.63,54.04-152.15,20.87-50.25,44.67-99.96,70.76-147.75,4.7-8.61,13.71-13.95,23.53-13.95,4.45,0,8.88,1.13,12.81,3.28,6.28,3.43,10.85,9.09,12.86,15.96,2.02,6.86,1.24,14.1-2.19,20.38-25.18,46.12-48.16,94.11-68.31,142.63-19.85,47.8-37.41,97.22-52.17,146.88-3.35,11.28-13.9,19.15-25.66,19.15Z"/>
          <path d="M659.66,295.07c3.39,0,6.83,.82,10.02,2.56,10.16,5.54,13.89,18.27,8.35,28.43-25.28,46.31-48.35,94.49-68.57,143.19-19.94,48-37.56,97.61-52.38,147.45-2.7,9.1-11.04,14.98-20.07,14.98-1.98,0-3.99-.28-5.98-.87-.19-.05-.37-.11-.55-.17-10.74-3.51-16.8-14.97-13.55-25.88,15.23-51.23,33.34-102.23,53.84-151.57,20.79-50.06,44.5-99.58,70.49-147.19,3.8-6.97,10.99-10.92,18.41-10.92m0-11.66h0c-11.95,0-22.92,6.51-28.64,16.99-26.19,47.97-50.08,97.87-71.03,148.31-20.64,49.7-38.89,101.09-54.24,152.72-2.44,8.2-1.59,16.88,2.39,24.46,3.97,7.56,10.62,13.18,18.72,15.83,.29,.09,.59,.19,.89,.28,3,.89,6.13,1.35,9.27,1.35,14.32,0,27.17-9.59,31.25-23.32,14.71-49.46,32.19-98.69,51.97-146.3,20.07-48.33,42.96-96.13,68.04-142.07,4.17-7.65,5.12-16.46,2.67-24.82-2.46-8.36-8.02-15.26-15.67-19.43-4.78-2.61-10.18-3.99-15.6-3.99h0Z"/>
        </g>
        <g>
          <path class="cls-1" d="M1148.03,626.12c-2.84,0-5.65-.45-8.35-1.33-6.13-2-11.33-6.16-14.65-11.7-26.56-44.38-55.73-87.84-86.71-129.18-42.12-56.2-88.63-109.91-138.25-159.64-10.43-10.46-10.4-27.45,.05-37.87,5.05-5.04,11.77-7.81,18.91-7.81s13.9,2.79,18.96,7.85c51.42,51.56,99.6,107.19,143.19,165.35,32.11,42.84,62.32,87.86,89.82,133.81,3.67,6.14,4.74,13.34,2.99,20.27-1.74,6.94-6.08,12.78-12.22,16.45-4.16,2.49-8.91,3.8-13.73,3.8Z"/>
          <path d="M919.03,284.4c5.37,0,10.74,2.05,14.84,6.15,51.21,51.35,99.21,106.77,142.65,164.72,31.97,42.67,62.08,87.51,89.48,133.31,5.94,9.93,2.71,22.79-7.22,28.73-3.37,2.01-7.08,2.97-10.74,2.97-2.23,0-4.43-.35-6.54-1.04-4.63-1.51-8.76-4.64-11.46-9.15-26.66-44.55-55.94-88.18-87.05-129.68-42.26-56.39-88.95-110.31-138.79-160.26-8.17-8.19-8.15-21.46,.04-29.63,4.09-4.08,9.44-6.11,14.79-6.11m0-11.66c-8.69,0-16.87,3.38-23.02,9.52-12.73,12.69-12.76,33.38-.06,46.12,49.43,49.55,95.76,103.05,137.71,159.03,30.86,41.17,59.92,84.46,86.38,128.68,4.03,6.74,10.37,11.8,17.84,14.25,3.29,1.08,6.71,1.62,10.16,1.62,5.88,0,11.66-1.6,16.72-4.63,7.48-4.47,12.76-11.59,14.89-20.04,2.12-8.45,.83-17.22-3.64-24.69-27.59-46.12-57.92-91.31-90.15-134.31-43.76-58.38-92.11-114.22-143.72-165.97-6.18-6.18-14.38-9.57-23.1-9.57h0Z"/>
        </g>
        <g>
          <path class="cls-2" d="M793.42,742.09c-3.14,0-6.24-.49-9.22-1.47-11.81-3.86-20.05-14.8-20.5-27.22-.29-7.95,2.53-15.53,7.95-21.35,4.62-4.97,10.65-8.15,17.25-9.15L558.41,121.26c-1.97,1.3-3.76,2.57-5.46,3.86-5.21,3.95-11.42,6.03-17.94,6.03-3.16,0-6.29-.5-9.3-1.48-5.78-1.89-10.78-5.46-14.46-10.32-4.8-6.34-6.84-14.17-5.75-22.05,1.09-7.88,5.18-14.86,11.53-19.66,14.53-11,30.59-19.77,47.72-26.08,16.96-6.25,34.73-9.98,52.8-11.08,.61-.04,1.21-.05,1.8-.05,15.72,0,28.77,12.29,29.72,27.97,1,16.38-11.52,30.52-27.91,31.52-2.19,.13-4.47,.35-6.88,.65l81.74,199.16,196.61-12.92,48.55-221.25c-2.1,.08-4.07,.2-5.96,.38-.93,.09-1.88,.13-2.81,.13-3.14,0-6.24-.49-9.22-1.47-11.28-3.69-19.29-13.7-20.4-25.51-1.54-16.35,10.51-30.9,26.85-32.43,5.75-.54,11.59-.82,17.37-.82,12.36,0,24.79,1.25,36.92,3.72,17.77,3.63,34.85,9.8,50.76,18.36,7,3.77,12.12,10.04,14.41,17.65,2.29,7.62,1.48,15.67-2.29,22.67-5.2,9.67-15.26,15.68-26.25,15.68-4.89,0-9.75-1.23-14.08-3.56-2.14-1.15-4.41-2.27-6.86-3.37l-132.3,602.86h.1c.37-.02,.74-.02,1.11-.02,16.08,0,29.13,12.6,29.72,28.69,.29,7.95-2.53,15.53-7.95,21.35-5.42,5.82-12.77,9.19-20.72,9.48l-75.06,2.73c-.37,.01-.74,.02-1.11,.02Zm28.85-134.71l57.06-260.03-159.48,10.48,102.42,249.56Z"/>
          <path d="M947.01,11.66c11.99,0,23.97,1.2,35.76,3.6,17.2,3.51,33.73,9.49,49.16,17.78,11.64,6.26,16.01,20.78,9.75,32.42-4.33,8.04-12.58,12.61-21.11,12.61-3.83,0-7.71-.92-11.32-2.86-4.47-2.41-9.1-4.47-13.81-6.33l-135.41,617.06,7.62-.28c.3-.01,.6-.02,.9-.02,12.8,0,23.42,10.16,23.89,23.07,.48,13.21-9.84,24.31-23.05,24.79l-75.06,2.73c-.3,.01-.6,.02-.9,.02-2.58,0-5.07-.42-7.41-1.18-9.27-3.03-16.11-11.58-16.48-21.89-.48-13.21,9.84-24.31,23.05-24.79l4.81-.17-143.08-348.64s-.02-.04-.03-.06l-93.11-226.88c-4.03,2.42-7.98,4.98-11.75,7.83-4.32,3.27-9.39,4.85-14.43,4.85-2.54,0-5.07-.4-7.48-1.19-4.48-1.46-8.57-4.26-11.63-8.3-7.98-10.54-5.9-25.56,4.65-33.54,14.08-10.65,29.63-19.15,46.22-25.26,16.44-6.06,33.65-9.66,51.14-10.73,.49-.03,.97-.04,1.45-.04,12.56,0,23.13,9.78,23.9,22.49,.8,13.2-9.25,24.55-22.45,25.35-4.96,.3-9.86,.97-14.73,1.82l86.15,209.91,205.17-13.48,51.06-232.69c-.68,0-1.36-.01-2.03-.01-3.91,0-7.83,.13-11.74,.5-.76,.07-1.52,.11-2.26,.11-2.57,0-5.07-.41-7.41-1.18-8.79-2.87-15.48-10.73-16.4-20.52-1.24-13.17,8.43-24.84,21.59-26.08,5.6-.53,11.21-.79,16.82-.79m-123.04,615.2l62.73-285.84-175.31,11.52,112.58,274.32M947.01,0s0,0,0,0c-5.95,0-11.98,.28-17.91,.84-19.54,1.84-33.95,19.24-32.11,38.78,1.33,14.12,10.9,26.1,24.39,30.51,3.57,1.17,7.28,1.76,11.04,1.76,.47,0,.94,0,1.41-.03l-45.95,209.41-188.05,12.35-77.15-187.99c19.03-1.78,33.39-18.4,32.22-37.61-1.13-18.75-16.75-33.44-35.54-33.44-.71,0-1.43,.02-2.14,.06-18.66,1.14-36.98,4.98-54.48,11.43-17.67,6.51-34.23,15.56-49.23,26.9-15.65,11.85-18.75,34.22-6.91,49.88,4.41,5.82,10.39,10.09,17.3,12.35,3.59,1.17,7.33,1.77,11.11,1.77,7.53,0,14.7-2.32,20.8-6.72l87.63,213.52,.02,.05,.07,.17h0s137.46,334.95,137.46,334.95c-5.12,1.91-9.77,5-13.6,9.12-6.47,6.96-9.85,16.03-9.5,25.54,.54,14.85,10.39,27.93,24.51,32.55,3.56,1.17,7.28,1.76,11.03,1.76,.44,0,.89,0,1.34-.03l75.05-2.73c9.5-.35,18.3-4.37,24.78-11.34,6.47-6.96,9.85-16.03,9.5-25.54-.34-9.27-4.2-17.92-10.89-24.35-5.22-5.03-11.72-8.28-18.73-9.46L1003.73,85.48c5.17,2.78,10.99,4.25,16.83,4.25,13.13,0,25.16-7.18,31.38-18.75,4.5-8.37,5.48-18,2.74-27.11-2.74-9.11-8.86-16.6-17.23-21.11-16.41-8.82-34.02-15.19-52.35-18.93C972.58,1.29,959.76,0,947.01,0h0Zm-218.68,363.11l143.65-9.44-51.4,234.22-92.25-224.79h0Z"/>
        </g>
      </g>
      <ellipse class="cls-3" cx="1182.69" cy="724.71" rx="112.73" ry="170.25" transform="translate(-56.36 101.24) rotate(-4.79)"/>
      <path class="cls-12" d="M588.82,531.26c-19.22-8.72-55.9-22.28-103.48-21.04-41.15,1.08-73.04,12.78-91.47,21.18"/>
      <path class="cls-12" d="M1079.43,520.62c19.21-9.67,59.89-26.95,113.96-25.79,53.83,1.16,93.59,20.02,112.37,30.47"/>
      <ellipse class="cls-10" cx="1132.64" cy="651.15" rx="45.09" ry="59.74" transform="translate(-50.4 96.81) rotate(-4.79)"/>
      <path class="cls-9" d="M762.66,834.13c7.73,9.83,26.58,31.01,58.67,42.67,42.34,15.39,79.19,3.83,90,0"/>
      <path class="cls-4" d="M383.26,702.35c20.54-45.63,65.98-75.22,115.92-75.48,50.42-.27,96.52,29.4,117.26,75.48"/>
      <path class="cls-11" d="M1661.67,746.1c-5.56,4.79-14.2,11.01-25.97,15.02-30.81,10.49-69.14,1.12-88.07-22.32-9.78-12.11-4.1-15.26-16.64-58.03-13.39-45.68-23.44-54.32-17.45-70.21,4.7-12.47,11.77-9.46,38.15-35.71,14.47-14.4,25.01-24.89,33.28-41.4,11.09-22.15,4.68-28.35,14.77-45.82,11.41-19.77,36.2-40.55,52.6-34.54,17.79,6.52,24.31,44.07,15.42,70.62-5.31,15.86-13.54,19.92-10.96,26.38,7.69,19.26,81.75-4.42,95.78,21.1,4.85,8.83-3.03,13.45-.41,36.12,2.89,24.98,13.34,27.06,14.61,45.05,1.19,16.9-10.03,32.91-32.47,64.93-19.2,27.41-26.03,31.99-33.28,33.68-10.6,2.47-24.49,.16-34.14-7.91-2.42-2.03-6.59-5.38-8.47-11.16-2.38-7.33,2.39-9.75,1.22-22.32-1.49-16.03-9.73-17.12-9.33-28.41,.54-15.6,16.5-20.33,14.2-34.09-.85-5.07-3.42-6.82-4.81-10.83-.06-.18-.81-3.1-.87-4.59-.41-9.06,22.3-17.54,23.44-17.96"/>
    </g>
  </g>
</svg>